# xmcd CD database file
#
# Track frame offsets:
#	150
#	13042
#	32997
#	47465
#	61256
#	83276
#	107237
#	126809
#	144660
#	166679
#	183543
#	206407
#	221202
#	241103
#	250980
#	282537
#	304724
#	334574
#
# Disc length: 4758 seconds
#
# Revision: 0
# Processed by: cddbd v1.5.1PL2 Copyright (c) Steve Scherf et al.
# Submitted via: Feurio! 1.68 - http://www.feurio.com
#
DISCID=fa129412
DTITLE=Willy DeVille - From The Bottom Line To The Olympia
DYEAR=1900
DGENRE=
TTITLE0=Peter Gunn
TTITLE1=Lilly's Daddy's Cadillac
TTITLE2=This Must Be The Night
TTITLE3=Savoir Faire
TTITLE4=Cadillac Walk
TTITLE5=Mixed Up, Shook Up Girl
TTITLE6=Heart And Soul
TTITLE7=Demasiado Corazon
TTITLE8=I Must Be Dreaming
TTITLE9=Can't Do Without It
TTITLE10=Angel Eyes
TTITLE11=Heaven Stood Still
TTITLE12=Stand By Me
TTITLE13=Every Dog ( Has Its Day )
TTITLE14=Spanish Stroll
TTITLE15=Hey Joe
TTITLE16=Dust My Broom
TTITLE17=Iko, Iko
EXTD=
EXTT0=
EXTT1=
EXTT2=
EXTT3=
EXTT4=
EXTT5=
EXTT6=
EXTT7=
EXTT8=
EXTT9=
EXTT10=
EXTT11=
EXTT12=
EXTT13=
EXTT14=
EXTT15=
EXTT16=
EXTT17=
PLAYORDER=
